<svg width="45" height="48" viewBox="0 0 45 48" fill="none" xmlns="http://www.w3.org/2000/svg">
<path fill-rule="evenodd" clip-rule="evenodd" d="M42.4003 27.453C43.2474 27.9035 43.901 28.6147 44.3608 29.3259C45.2564 30.7957 45.1838 32.5975 44.3124 34.1859L42.6181 37.0308C41.7226 38.548 40.0525 39.4963 38.334 39.4963C37.4868 39.4963 36.5429 39.2593 35.7683 38.7851C35.139 38.3821 34.4129 38.2398 33.6383 38.2398C31.2421 38.2398 29.2332 40.2075 29.1606 42.5546C29.1606 45.2809 26.9338 47.4146 24.1503 47.4146H20.8585C18.0508 47.4146 15.824 45.2809 15.824 42.5546C15.7756 40.2075 13.7667 38.2398 11.3704 38.2398C10.5717 38.2398 9.84557 38.3821 9.24046 38.7851C8.46593 39.2593 7.49776 39.4963 6.67481 39.4963C4.93211 39.4963 3.26201 38.548 2.36646 37.0308L0.696363 34.1859C-0.199195 32.6449 -0.247603 30.7957 0.647954 29.3259C1.03522 28.6147 1.76135 27.9035 2.58429 27.453C3.26201 27.1211 3.69769 26.5759 4.10916 25.9358C5.31938 23.8969 4.59325 21.218 2.53589 20.0089C0.139665 18.6576 -0.634871 15.6468 0.744771 13.2998L2.36646 10.5023C3.7703 8.1553 6.77163 7.32555 9.19205 8.70057C11.2978 9.83852 14.0329 9.07989 15.2673 7.06477C15.6546 6.40096 15.8724 5.68975 15.824 4.97853C15.7756 4.05394 16.0419 3.17677 16.5017 2.46556C17.3973 0.995705 19.019 0.0474145 20.7859 0H24.1987C25.9898 0 27.6115 0.995705 28.507 2.46556C28.9427 3.17677 29.2332 4.05394 29.1606 4.97853C29.1122 5.68975 29.33 6.40096 29.7173 7.06477C30.9517 9.07989 33.6868 9.83852 35.8167 8.70057C38.213 7.32555 41.2385 8.1553 42.6181 10.5023L44.2398 13.2998C45.6437 15.6468 44.8691 18.6576 42.4487 20.0089C40.3913 21.218 39.6652 23.8969 40.8996 25.9358C41.2869 26.5759 41.7226 27.1211 42.4003 27.453ZM15.6548 23.731C15.6548 27.453 18.7288 30.4164 22.5289 30.4164C26.3289 30.4164 29.3302 27.453 29.3302 23.731C29.3302 20.0089 26.3289 17.0218 22.5289 17.0218C18.7288 17.0218 15.6548 20.0089 15.6548 23.731Z" fill="#407847" fill-opacity="0.8"/>
</svg>
